<?xml version="1.0" encoding="UTF-8" standalone="no"?>
<svg
   width="1200pt"
   height="1200pt"
   version="1.1"
   viewBox="0 0 1200 1200"
   id="svg19"
   sodipodi:docname="20250106-logo.v2.svg"
   inkscape:version="1.3.1 (9b9bdc1480, 2023-11-25, custom)"
   xml:space="preserve"
   xmlns:inkscape="http://www.inkscape.org/namespaces/inkscape"
   xmlns:sodipodi="http://sodipodi.sourceforge.net/DTD/sodipodi-0.dtd"
   xmlns="http://www.w3.org/2000/svg"
   xmlns:svg="http://www.w3.org/2000/svg"><sodipodi:namedview
     id="namedview19"
     pagecolor="#ffffff"
     bordercolor="#666666"
     borderopacity="1.0"
     inkscape:showpageshadow="2"
     inkscape:pageopacity="0.0"
     inkscape:pagecheckerboard="0"
     inkscape:deskcolor="#d1d1d1"
     inkscape:document-units="pt"
     showgrid="false"
     inkscape:zoom="0.45254834"
     inkscape:cx="582.25824"
     inkscape:cy="806.54367"
     inkscape:window-width="2560"
     inkscape:window-height="1376"
     inkscape:window-x="0"
     inkscape:window-y="0"
     inkscape:window-maximized="1"
     inkscape:current-layer="g2" /><defs
     id="defs3"><clipPath
       id="c"><path
         d="m722 339h399.55v738h-399.55z"
         id="path1" /></clipPath><clipPath
       id="b"><path
         d="m81.555 79.555h1012.4v1022.4h-1012.4z"
         id="path2" /></clipPath><clipPath
       id="a"><path
         d="m198 79.555h338v183.45h-338z"
         id="path3" /></clipPath></defs><g
     inkscape:groupmode="layer"
     id="layer2"
     inkscape:label="Enso1"
     style="display:inline"><g
       inkscape:groupmode="layer"
       id="layer5"
       inkscape:label="Enso"
       transform="matrix(1.1340652,0,0,1.1340652,-81.34541,-68.71881)"><path
         d="m 391.50707,981.55293 c 1.1094,0.44531 9.5547,4 18.668,7.5547 7.7773,4.668 16.223,9.7773 26.445,16.66797 -0.22266,0.668 -0.44531,1.332 -0.89062,2.2227 -18.668,-9.33197 -42,-21.55497 -44.223,-26.44497"
         id="path4"
         style="display:inline" /><g
         clip-path="url(#c)"
         id="g5"
         transform="rotate(90,602.75211,590.755)"
         style="display:inline"><path
           d="m 1114.7,519.11 c 8.2227,49.332 9.332,98.891 2.668,148.67 -12.668,96.223 -52.445,180.89 -111.33,257.11 -22.223,28.668 -48.223,53.777 -77.109,75.777 -46.445,35.332 -97.555,60 -154.89,70.891 -16.891,3.1094 -34.445,4.4453 -51.777,5.332 13.777,-9.5547 30.223,-10.445 45.332,-14.891 32.223,-9.1094 64.223,-20 93.109,-36.891 41.555,-24.223 80.891,-51.777 113.78,-87.777 63.332,-69.777 106.45,-149.55 125.11,-242.22 14,-69.109 12.445,-137.78 -4,-206.22 -7.332,-31.109 -13.555,-62.445 -25.332,-92.223 -7.5547,-18.668 -15.777,-36.668 -25.555,-54 l 6.8906,-3.1094 c 31.773,56.004 52.441,115.78 63.109,179.56"
           id="path5" /></g><path
         d="m 781.28707,984.22293 c -54,27.55497 -111.55,40.89097 -171.78,40.89097 75.555,-7.3359 105.55,-14.668 171.78,-40.89097"
         id="path6"
         style="display:inline" /><path
         d="m 435.95707,1007.8029 v 0.2227 c -3.5547,-0.8906 -23.109,-10.00001 -26.223,-12.00001 -20.668,-12.223 -46.891,-30.223 -66.668,-45.777 1.7773,-7.5547 22.445,11.777 31.109,16.891 13.109,8.668 23.555,14.445 36,21.777 -9.1094,-3.5547 -17.555,-6.8906 -18.668,-7.5547 2.2266,5.1094 25.559,17.332 44.449,26.44101"
         id="path7"
         style="display:inline" /><path
         d="m 671.72707,1001.1029 c -76,21.109 -150.45,17.555 -222.89,-14.22297 -13.332,-5.7773 -25.777,-13.332 -38.668,-20 -1.332,-0.66797 -2.668,-2 -3.332,-4.2227 2.2227,0.66797 4.4453,1.332 6.668,2.2227 43.332,16.891 88.223,27.109 134.67,30.891 58.223,4.89057 115.33,-0.89062 171.11,-17.777 l 2.4453,8.668 c -16.445,4.8867 -33.113,9.7773 -50,14.44097"
         id="path8"
         style="display:inline" /><g
         clip-path="url(#b)"
         id="g9"
         transform="rotate(90,602.75211,590.755)"
         style="display:inline"><path
           d="m 1086.4,514.89 c -7.1094,-46.223 -17.109,-91.777 -35.332,-135.11 -10.445,-24.668 -24,-47.555 -38.445,-70 -3.1094,-4.8906 -5.5547,-10.223 -8.4453,-15.555 0.8906,-0.66797 1.5547,-1.1094 2.4453,-1.7773 4,4 8.2227,7.5547 11.777,11.777 10,12 18.668,24.891 26.223,38.445 l 6.8906,-3.1094 c -7.332,-12.891 -15.109,-25.332 -23.555,-37.777 -32.891,-48.223 -72.223,-90 -120.22,-123.55 -42.445,-29.555 -88.668,-51.777 -137.78,-68.445 -69.109,-23.555 -139.55,-35.109 -212.89,-29.109 -60,4.8906 -115.55,21.109 -167.55,46.668 -27.109,13.555 -53.332,29.555 -78.668,47.777 -34.445,25.109 -67.109,52.445 -95.332,84.668 -25.109,28.445 -48.223,58.668 -64.891,92.891 -22.223,46 -34.445,95.332 -42.891,145.33 -3.7773,22.668 -7.332,45.555 -11.109,68.223 -0.44531,2.8906 -2,5.5547 -3.1094,8.4453 -0.66797,-0.22266 -1.332,-0.44531 -2,-0.66797 1.1094,-14.668 1.5547,-29.332 3.332,-43.777 4.4453,-40.223 13.777,-79.109 26.445,-117.55 15.777,-48 35.109,-94 66.223,-134.45 3.5547,-4.4453 6.4453,-9.332 9.7773,-14 -4,4.4453 -8,8.8906 -11.777,13.555 -30.445,37.777 -52.891,80 -70.223,125.11 -28.668,75.555 -38.891,152.89 -31.332,232.22 5.7773,60.891 20.668,119.55 45.777,175.33 11.109,24.668 24.668,36.223 36.223,60.668 11.109,23.555 23.777,43.777 39.332,64.668 13.555,18.223 28,29.332 42,47.332 10.223,12.891 16,15.332 26.445,27.77697 2,2.4453 10.445,12.668 13.555,13.555 5.5547,1.332 11.777,8.8906 16.891,11.109 10.668,4.4453 20.891,10.223 31.332,15.555 19.109,9.7773 33.555,20.445 52.668,30 2.2227,1.1094 11.777,3.332 15.109,4.2227 -1.7773,-3.5547 -4.8906,-1.332 -6.8906,-5.5547 9.1094,2.668 16,4.4453 25.555,7.5547 12.445,4 35.777,10.891 48.445,14.445 4,1.1094 1.7773,-2 6,-2 0.22266,-0.4453 6.8906,1.1094 7.1094,0.668 -2.4453,-2 4.2227,-2 1.332,-4.4453 1.5547,-0.8906 2.4453,-1.332 3.5547,-2 12.445,-8.8906 25.332,-10.891 37.555,-20.223 4.2227,-3.1094 8,-7.7773 6.4453,-14.223 -2.2227,-8.8906 -3.7773,-18.223 -7.1094,-26.891 -2.8906,-7.1094 -6.668,-14.891 -12.445,-19.555 -12.891,-10.223 -14.223,-23.109 -27.777,-32.445 -9.5547,-6.4453 -39.332,-17.332 -48.223,-24.668 -12,-10.445 -36.668,-10.668 -48,-21.777 -13.777,-13.555 -35.109,-26.223 -47.332,-41.109 -89.555,-78.223 -110.67,-158.45 -123.78,-219.33 -2,-8.4453 -1.332,-37.109 -3.332,-46.668 -1.5547,2.4453 -2.4453,3.7773 -4,6 -0.66797,-3.332 -1.1094,-5.332 -1.332,-7.5547 -5.332,-61.109 1.1094,-120.89 22.223,-178.67 7.332,-20.223 16,-39.332 26.223,-57.332 37.332,-67.332 92.668,-119.11 161.78,-158.89 24.891,-14.445 50.891,-25.109 77.555,-32.668 39.332,-11.109 80.223,-14.891 122.45,-13.109 56,2.4453 108.89,18 159.55,40.891 37.109,16.668 72.223,37.109 101.33,65.777 16,15.777 30,33.777 43.777,51.555 28.445,36.891 49.332,78 63.777,122.22 0.89062,2.8906 1.7773,5.7773 2.668,8.668 l 8.668,-2.4453 c -2.2227,-7.5547 -4.2227,-15.109 -6.4453,-22.445 -0.89062,-3.1094 -0.66797,-6.668 -1.1094,-10.891 3.7773,1.332 5.7773,2.2227 8.4453,3.1094 3.332,-10.668 -2.668,-19.555 -3.332,-29.109 27.555,54 40.891,111.55 40.891,171.78 0,37.109 -2.8906,74.223 -6.668,111.11 -2.2227,20.668 -15.555,43.109 -20.223,63.332 -0.2227,1.5547 -4.8906,13.555 -9.332,24.445 4.668,-7.7773 9.7773,-16.223 16.668,-26.445 0.668,0.22266 1.332,0.44531 2.2227,0.89063 5.5547,-11.555 9.7773,-21.332 10.445,-23.777 7.1094,-24.891 12.668,-36.668 14.445,-62.668 1.332,-19.332 2.8906,-38.445 3.1094,-57.555 0.2227,-26.891 -1.332,-42.668 -3.1094,-69.555 -1.332,-17.777 -7.5547,-46.668 -11.332,-64 -11.555,-49.777 -35.109,-94.223 -61.777,-137.33 -4.4453,-7.1094 -8.4453,-14.445 -13.109,-22.668 28.223,4.668 96,129.33 98.223,177.78 -5.7773,-14 -11.332,-27.555 -16.891,-41.332 -0.8906,0.22266 -1.5547,0.66797 -2.4453,0.89063 22.445,70.445 25.109,142.89 23.109,216 1.332,-10.223 2.8906,-20.223 4.2227,-30.445 0.8906,8.4453 1.332,16.668 0,24.891 -2.668,16 -4.668,32.445 -10.668,47.109 -3.7773,9.1094 -6.668,18.445 -10.445,27.555 -9.332,22.668 -18,45.777 -28.668,67.555 -10,20.223 -21.332,40 -34,58.891 -10,15.109 -23.777,27.777 -34,42.668 -11.109,16 -24.891,28.445 -40,39.777 -16,12 -32,24.223 -46.223,38.223 -10,10 -21.109,17.77704 -34,26.00004 2,1.7773 3.7773,4.668 5.1094,4.4453 6.668,-1.332 13.777,1.1094 20,-3.332 10,-7.1094 22,-11.777 30.668,-20.22304 9.5547,-9.1094 19.109,-18 30.445,-24.223 24,-12.891 42.668,-31.777 58.668,-53.109 19.332,-25.777 36.668,-53.109 55.332,-79.555 35.777,-50.445 54.445,-106.89 62.445,-167.55 6.6602,-52.012 4.6602,-104.46 -3.3398,-156.9 z m -122,-154.22 c 4.668,7.7773 13.555,13.332 13.555,24 -0.66797,0.44531 -1.332,0.66797 -2,1.1094 -4.4453,-8 -8.8906,-16 -13.332,-24 0.66406,-0.22266 1.332,-0.66797 1.7773,-1.1094 z m -14.668,-20.668 c -4.2227,-4.4453 -8.668,-9.1094 -12.891,-13.555 -47.996,-52 -104,-93.113 -170,-119.78 -16.668,-6.668 -34.668,-9.7773 -52,-15.109 -8.668,-2.668 -16.891,-6.668 -25.332,-10 0.44531,-0.89062 0.89062,-2 1.1094,-2.8906 17.777,4.8906 35.777,9.5547 53.332,14.891 33.555,9.7773 66.445,22 96.891,39.332 32.891,18.891 61.109,43.555 85.555,72.668 8,9.332 14.891,19.555 22.445,29.555 0.88672,0.88672 1.5547,2.4414 0.88672,4.8867 z"
           id="path9" /></g><path
         d="m 177.10707,812.00293 c -4,1.5547 -7.1094,3.1094 -8.668,-2.2227 -0.22266,-0.66797 -0.89062,-1.5547 -1.332,-1.332 -8.8906,0.66797 -9.1094,-6.8906 -11.332,-12.223 -4.2227,-10.223 -7.5547,-20.668 -11.109,-31.109 0.89062,-0.44531 2,-0.89062 2.8906,-1.5547 9.9961,15.996 19.551,31.996 29.551,48.441"
         id="path10"
         style="display:inline" /><path
         d="m 999.05707,556.67293 c 8.66803,12.668 3.55473,95.332 -5.1094,105.33 1.5547,-34.668 3.332,-69.109 5.1094,-105.33"
         id="path11"
         style="display:inline" /><path
         d="m 989.28707,486.45293 c 1.332,4.668 1.7773,9.7773 2.668,14.445 -14.891,-50 -39.332,-94.223 -72,-134.67 -31.555,-38.891 -68.891,-71.555 -108,-102.45 -3.332,-2.668 -6.4453,-5.5547 -9.7773,-8.4453 -0.44531,-0.44531 -0.66797,-1.1094 -1.7773,-3.7773 4.668,2.8906 7.7773,4.668 10.668,6.668 44.668,30.891 83.777,67.555 116.45,110.67 27.328,35.555 49.773,73.777 61.773,117.55"
         id="path12"
         style="display:inline" /><g
         clip-path="url(#a)"
         id="g13"
         transform="rotate(90,602.75211,590.755)"
         style="display:inline"><path
           d="m 535.11,75.332 c -9.7773,4.8906 -83.777,18.668 -93.555,23.332 -17.777,8.668 -35.555,17.332 -53.332,26.223 -16.223,8 -32.223,16 -48.445,24.223 -37.777,19.109 -71.109,44.668 -101.78,73.777 -11.777,11.332 -22.445,23.777 -33.777,35.555 -1.5547,1.5547 -3.332,2.8906 -5.332,4.4453 6.4453,-7.7773 12.223,-15.777 19.109,-23.109 27.109,-29.332 56.668,-55.332 88.668,-78.668 42.668,-31.332 89.109,-55.332 139.78,-71.332 7.7773,-2.4453 35.777,-9.1094 44.223,-10"
           id="path13" /></g><path
         d="m 930.17707,186.45293 c 0.22266,0.22266 0.44531,0.44531 0.66797,0.89063 -0.22656,-0.22656 -0.66797,-0.66797 -0.66797,-0.89063 z"
         id="path14"
         style="display:inline" /><path
         d="m 930.17707,186.45293 c -0.66797,-0.22266 -1.1094,-0.66797 -1.5547,-1.1094 0.44141,0.44141 1.1094,0.66406 1.5547,1.1094"
         id="path15"
         style="display:inline" /><path
         d="m 309.72707,958.89293 c 0.44531,-0.66797 35.777,28.445 36.223,27.777 -20.445,-24.668 -69.555,-69.109 -86,-88.668 -6.8906,-7.5547 -16,-20.668 -25.109,-25.109 14.668,20.668 34.668,45.332 50.891,62.891 2.6641,2.4414 20.883,21.328 23.996,23.109"
         id="path16"
         style="display:inline" /><path
         d="m 471.95707,990.90293 c -78,-31.109 -159.33,-83.332 -209.55,-138.22 49.777,72.887 126.22,119.33 209.55,138.22"
         id="path17"
         style="display:inline" /><path
         d="m 426.83707,999.60293 c -62.445,-27.777 -150,-108.89 -195.11,-161.78 47.332,70.891 130.45,146.22 195.11,161.78"
         id="path18"
         style="display:inline" /><path
         d="m 258.39707,382.00293 c 8.4453,14.668 -29.332,90.891 -53.777,100 15.109,-29.777 24.668,-30.223 36,-55.777"
         id="path19"
         style="display:inline" /></g><g
       inkscape:groupmode="layer"
       id="layer4"
       inkscape:label="Needle"><g
         id="g3"
         transform="matrix(0.78661416,0.12106103,-0.15211053,0.98836349,134.77044,60.823317)"><rect
           style="display:inline;fill:#000000;stroke-width:0.999997;-inkscape-stroke:none"
           id="rect2"
           width="311.66589"
           height="26.071571"
           x="221.48381"
           y="636.8468"
           ry="7.3179226"
           transform="translate(-2e-6)"
           rx="5.6849947" /><rect
           style="display:inline;fill:#000000;stroke-width:1.01404;-inkscape-stroke:none"
           id="rect3"
           width="442.2327"
           height="5.7193279"
           x="532.83453"
           y="647.77295" /></g><g
         id="g7"
         transform="matrix(0.78865966,-0.10692775,0.13435238,0.99093362,73.414527,314.45146)"><rect
           style="display:inline;fill:#000000;stroke-width:0.999997;-inkscape-stroke:none"
           id="rect6"
           width="311.66589"
           height="26.071571"
           x="221.48381"
           y="636.8468"
           ry="7.3179226"
           transform="translate(-2e-6)"
           rx="5.6849947" /><rect
           style="display:inline;fill:#000000;stroke-width:1.01404;-inkscape-stroke:none"
           id="rect7"
           width="442.2327"
           height="5.7193279"
           x="532.83453"
           y="647.77295" /></g></g><g
       inkscape:groupmode="layer"
       id="g2"
       inkscape:label="Shendao-paths"
       transform="translate(-2e-6)"
       style="display:inline"><path
         id="text1"
         style="font-style:normal;font-weight:normal;font-size:200px;line-height:1.25;font-family:sans-serif;letter-spacing:0px;word-spacing:0px;fill:#000000;fill-opacity:1;stroke:none;stroke-width:0.875437"
         d="m 371.1254,500.10945 c -0.75871,-0.26263 -1.43055,0.48218 -2.01418,2.23305 -0.77817,2.17886 -1.40024,5.13544 -1.86714,8.87064 -0.4669,3.57956 -0.77794,5.4475 -0.93358,5.60313 -0.4669,2.17887 -0.70102,5.05854 -0.70102,8.6381 0,3.57956 0.15551,5.99096 0.46678,7.23603 0,0.62253 0.0787,4.74636 0.23424,12.37239 0.31127,7.62602 0.31127,14.86365 0,21.71152 -0.31126,6.84785 -1.16747,10.66063 -2.56817,11.4388 -5.29152,2.95703 -10.19467,4.04738 -14.70802,3.26921 -2.17886,-0.62253 -4.59027,-0.62253 -7.23604,0 -2.49012,0.4669 -4.98014,0.54381 -7.47027,0.23254 -2.49013,-0.4669 -4.04704,-1.71106 -4.66957,-3.73429 -2.8014,-0.15563 -5.68107,-0.0788 -8.6381,0.23254 -4.98025,0.62253 -8.24787,0.3115 -9.8042,-0.93356 -1.4007,-1.24507 -2.02278,-3.89062 -1.86714,-7.93707 0.9338,-1.71196 1.63278,-3.65682 2.09968,-5.83568 0.62253,-2.33449 1.01218,-4.51348 1.16781,-6.53671 0.15564,-2.17885 0.15564,-4.12542 0,-5.83739 -0.15563,-1.86758 -0.46667,-3.34588 -0.93357,-4.43531 -0.31127,-1.08943 -0.70092,-1.6346 -1.16782,-1.6346 -0.15563,-0.62253 -0.077,-1.9453 0.23425,-3.96853 0.31127,-2.02323 0.54369,-3.88947 0.69933,-5.60143 0.31126,-1.8676 0.38987,-3.58002 0.23424,-5.13635 -0.15563,-1.55633 -0.7008,-2.41254 -1.6346,-2.56818 -0.4669,-0.15563 -1.32311,-0.46667 -2.56818,-0.93357 -1.24506,-0.62253 -2.17818,-1.01219 -2.80071,-1.16782 -0.62253,-0.31127 -1.47874,-0.46678 -2.56818,-0.46678 -0.9338,0 -1.94553,0.31103 -3.03495,0.93356 -0.9338,0.4669 -1.94554,1.32311 -3.03497,2.56818 l -2.33392,2.33393 c -0.77817,0.62253 -1.32335,1.09079 -1.63461,1.40206 l -1.16612,1.16611 c -0.31125,0.4669 -0.54539,1.01207 -0.70102,1.63461 v 1.86714 c 0,0.62254 0.0769,1.55736 0.23254,2.80242 0.15563,2.02324 0.31286,12.68402 0.46848,31.98252 -0.31125,2.17885 -0.38987,4.0468 -0.23424,5.60313 0.31127,1.4007 0.0772,2.80037 -0.70104,4.20107 -0.62253,1.24507 -1.86668,2.49093 -3.73428,3.73599 -0.4669,0.31127 -1.86828,1.08887 -4.20278,2.33394 -2.17886,1.24506 -3.88957,2.4123 -5.13464,3.50174 -1.24506,0.93379 -2.2568,2.17967 -3.03497,3.736 -1.86758,3.11265 -1.86758,5.21302 0,6.30245 0.4669,0.15564 1.40003,0.77772 2.80072,1.86714 l 3.50175,2.1014 c 0.77816,0.31126 1.7899,0.70091 3.03496,1.16781 1.4007,0.4669 2.72347,0.62243 3.96853,0.4668 1.24506,-0.31127 2.56784,-0.77784 3.96853,-1.40036 v 0.46678 l 0.93358,-1.63461 c 0.31126,-1.08942 0.5454,-1.86702 0.70103,-2.33392 0.62253,-1.55633 1.24461,-2.02461 1.86714,-1.40207 -0.31127,1.55633 -0.85643,4.35911 -1.6346,8.40556 -0.62253,4.04646 -1.08909,7.23546 -1.40036,9.56996 -0.15563,2.17886 -0.23254,4.98163 -0.23254,8.40556 0,3.2683 0.38794,6.30178 1.16611,9.10318 0.77816,2.95702 0.31161,5.68118 -1.40036,8.17131 -1.55632,1.4007 -1.63323,3.89072 -0.23254,7.47028 1.4007,3.57955 1.94416,5.99268 1.6329,7.23773 0.9338,0.77817 1.47898,1.16612 1.63461,1.16612 0.31127,-0.15564 0.70092,-0.38806 1.16782,-0.69932 0.62253,-0.4669 1.2446,-0.62242 1.86714,-0.4668 0.31126,4.51337 1.3999,7.9365 3.26749,10.271 0.77817,3.57956 2.25818,3.8137 4.43703,0.70104 1.08943,-1.24507 1.32187,-3.19163 0.69932,-5.83739 -0.46689,-2.8014 -0.31137,-4.82315 0.4668,-6.06821 0.31126,-0.15563 0.5454,-1.2e-4 0.70103,0.46678 0.31127,0.4669 0.54369,1.01036 0.69932,1.6329 0.15564,0.4669 0.38977,0.62241 0.70104,0.46678 0.15563,0.62253 0.38976,0.77976 0.70102,0.4685 0.4669,-0.31127 0.69934,-0.23436 0.69934,0.23254 v 3.50175 c 0.15563,2.33449 0.46666,4.04691 0.93356,5.13635 0.62253,1.24506 1.47874,1.47748 2.56818,0.69932 0.9338,-2.02323 1.16793,-4.90119 0.70103,-8.63639 0.15564,-3.7352 0.077,-7.54798 -0.23424,-11.43881 0.62252,-2.8014 0.3901,-6.14763 -0.69933,-10.03846 -1.08944,-5.91405 -2.64634,-19.3776 -4.66956,-40.38807 0.62252,-0.15563 1.40012,1.09023 2.33392,3.736 0.15563,1.08943 0.23425,1.08943 0.23425,0 0.62254,-0.4669 1.08909,-1.01207 1.40036,-1.6346 0.31127,-0.62254 0.46678,-1.16771 0.46678,-1.63461 0.15564,-0.4669 0.23425,-1.08898 0.23425,-1.86714 0.15563,-0.9338 0.31116,-1.6345 0.46679,-2.1014 1.71195,0.62254 4.04646,0.31151 7.00349,-0.93356 2.95703,-1.24507 5.0574,-1.94576 6.30246,-2.10139 1.86759,0 5.05832,-0.15552 9.57167,-0.46679 4.51336,-0.31126 8.01511,-0.46679 10.50524,-0.46679 7.47038,0 11.74974,0.54518 12.83917,1.63461 1.24507,0.9338 1.63472,4.43555 1.16782,10.50524 -0.15563,2.02323 -0.23424,3.65704 -0.23424,4.9021 -0.15565,0.4669 -0.15565,0.70104 0,0.70104 l 0.70102,-0.93357 c 0.9338,-2.02323 1.47898,-2.25737 1.63461,-0.70103 0.31127,2.80139 0.46678,8.3266 0.46678,16.57516 0.15564,8.09292 0.85633,14.86229 2.1014,20.30944 1.24505,5.29152 3.73508,10.03915 7.47027,14.24124 2.3345,2.95703 6.45833,2.8015 12.37239,-0.46678 2.64575,-1.55634 3.65749,-2.56807 3.03496,-3.03496 -4.51337,-2.95703 -7.39304,-7.78156 -8.6381,-14.47378 -1.71197,-9.49362 -1.47783,-19.37679 0.70103,-29.64857 0,-0.31127 0.15552,-0.93335 0.46678,-1.86715 0.4669,-0.9338 0.69934,-1.55588 0.69934,-1.86714 0,-0.4669 -0.15553,-1.24621 -0.4668,-2.33564 -0.31126,-0.77817 -0.6992,-1.40025 -1.1661,-1.86715 -0.31127,-0.46689 -0.62231,-0.70103 -0.93358,-0.70103 -0.31126,0 -0.62401,0.0787 -0.93527,0.23425 h -0.46679 v -0.70104 c 0,-0.4669 0.0787,-1.16758 0.23425,-2.10138 1.08943,-7.31475 6.14809,-10.19272 15.1748,-8.6364 3.26829,0 5.05763,-1.01172 5.36889,-3.03495 0.15564,-0.9338 0.077,-1.55588 -0.23425,-1.86714 -0.31127,-0.4669 -1.01025,-0.85656 -2.09968,-1.16782 -0.9338,-0.4669 -1.40206,-0.77794 -1.40206,-0.93358 -0.15563,0 -0.38805,-0.0786 -0.69933,-0.23424 -0.46689,0 -0.77793,-0.15553 -0.93357,-0.46679 -0.31126,-0.77817 -0.0788,-1.24473 0.69933,-1.40036 0.9338,-0.31127 1.32345,-0.85643 1.16781,-1.6346 l -7.00349,-0.46678 c -0.31126,-0.31127 -1.40161,-1.24438 -3.26921,-2.80072 -1.71196,-1.71196 -3.11164,-3.26887 -4.20107,-4.66956 -0.9338,-1.4007 -1.08931,-2.48934 -0.46678,-3.2675 0.62253,-0.77817 0.93356,-3.50232 0.93356,-8.17132 0,-4.82462 -0.15551,-10.03879 -0.46678,-15.64159 -0.15563,-5.60279 -0.23424,-9.26007 -0.23424,-10.97202 0.15563,-0.77817 0.46666,-2.17784 0.93356,-4.20107 l 1.40207,-6.06993 c 0.4669,-2.02323 0.93346,-4.1253 1.40036,-6.30417 0.4669,-2.3345 0.69932,-4.12382 0.69932,-5.36889 0,-1.24506 -0.23242,-2.10127 -0.69932,-2.56817 0,-2.95703 -0.54518,-5.44705 -1.63461,-7.47028 -0.15563,-3.57956 -1.55701,-3.96922 -4.20277,-1.16782 -1.08944,0.9338 -1.71151,2.17966 -1.86714,3.73599 -0.15564,1.55633 -0.15564,2.95772 0,4.20279 -1.08944,0.15563 -2.17808,0.38805 -3.26751,0.69932 0.15563,-0.62254 1.2e-4,-0.77805 -0.46678,-0.46678 -0.4669,0.15563 -0.70104,1e-4 -0.70104,-0.4668 0,-0.77816 0.0786,-1.86679 0.23425,-3.26749 0.31127,-1.4007 0.46679,-2.41243 0.46679,-3.03496 0.15563,-0.77817 1.1e-4,-1.86851 -0.46679,-3.26921 -0.27236,-0.31127 -0.53533,-0.51091 -0.78824,-0.59845 z m 348.21864,1.06523 c -1.20615,0 -2.39264,0.85621 -3.55988,2.56818 h -6.53671 c -3.57956,-0.15564 -5.75854,-0.15564 -6.53671,0 -0.15563,0.93379 0.0786,1.86691 0.70104,2.80071 0.62253,0.77817 1.32151,1.24644 2.09967,1.40207 -1.40069,-0.15563 -3.34554,-0.15563 -5.83567,0 -2.49013,0.15563 -4.35807,0.15563 -5.60313,0 -0.4669,-0.31127 -0.93347,-0.5454 -1.40036,-0.70103 -0.4669,-0.15564 -0.85656,-0.23254 -1.16783,-0.23254 -0.31125,0 -0.77782,0.15551 -1.40034,0.46678 -0.4669,0.15563 -0.77794,0.31116 -0.93358,0.46679 -0.15563,0.15563 -0.54528,0.46667 -1.16782,0.93357 -0.62253,0.31126 -1.01048,0.54368 -1.16611,0.69933 -1.4007,1.24505 -3.73519,2.25679 -7.00349,3.03495 -3.11266,0.77817 -4.82508,1.24643 -5.13635,1.40207 -2.8014,1.08943 -5.44693,0.23322 -7.93706,-2.56818 -4.98027,-2.64575 -8.3265,-1.24608 -10.03846,4.20107 -0.4669,1.08943 -1.55725,2.17978 -3.26921,3.26921 -1.71197,0.9338 -3.26716,1.86692 -4.66786,2.80072 -1.24506,0.77816 -1.79023,1.55576 -1.6346,2.33393 v 3.97024 c 0.15564,0.9338 -0.0784,1.86691 -0.70103,2.80071 -0.62254,0.77817 -1.166,1.32333 -1.6329,1.6346 l -2.10139,1.40036 c -0.9338,0.4669 -1.6345,0.85656 -2.10138,1.16783 -1.24507,1.24505 -1.94576,2.33369 -2.1014,3.26749 -0.15563,0.77817 0.23402,1.55576 1.16782,2.33392 0.9338,0.77817 1.86692,1.40196 2.80071,1.86886 1.08944,0.4669 2.72495,1.08898 4.90382,1.86715 1.71196,0.77815 3.03473,1.40024 3.96853,1.86714 1.08943,0.31126 2.33359,0.85643 3.73429,1.6346 1.55632,0.77816 2.8791,1.63437 3.96853,2.56817 1.24507,0.9338 2.25679,1.86692 3.03496,2.80072 1.71196,1.55633 2.80231,0.77873 3.26921,-2.33392 0.77816,-1.24507 0.69954,-2.49094 -0.23425,-3.73601 -1.55634,-9.33798 0.85679,-14.47354 7.23774,-15.40733 1.55633,-0.15564 3.34566,-0.54529 5.36889,-1.16782 2.17886,-0.62254 4.04681,-1.166 5.60314,-1.6329 1.55632,-0.4669 3.26704,-0.85655 5.13464,-1.16782 2.02323,-0.4669 3.89117,-0.62242 5.60314,-0.46679 h 27.78143 c 3.89083,-0.77817 8.55983,0.15496 14.00699,2.80071 5.44715,2.64577 9.80512,5.60406 13.07342,8.87236 0.9338,2.33449 2.33347,3.73416 4.20107,4.20106 3.57956,3.2683 8.5596,9.72663 14.94055,19.37588 4.04647,5.13589 5.29233,12.76319 3.736,22.87933 -1.40069,9.96052 -4.74693,16.65299 -10.03845,20.07692 -0.4669,0.4669 -1.47864,1.94518 -3.03497,4.43531 -1.55633,2.49013 -2.95771,4.04532 -4.20278,4.66786 -2.17886,1.4007 -4.59027,4.28037 -7.23602,8.6381 -2.64577,4.20208 -5.13579,7.08177 -7.47029,8.6381 -4.04646,2.17885 -10.5065,5.68061 -19.37758,10.50524 -0.62253,0.31126 -1.63255,0.70092 -3.03325,1.16782 -1.24507,0.4669 -2.72507,0.93345 -4.43703,1.40035 -1.55634,0.31127 -3.6567,0.93334 -6.30247,1.86714 -2.64575,0.9338 -5.36991,1.94554 -8.17131,3.03496 -1.71196,-1.08942 -2.87921,-2.25667 -3.50175,-3.50174 -0.62253,-1.24506 -0.85495,-2.2568 -0.69932,-3.03497 0.31127,-0.9338 0.46679,-1.71139 0.46679,-2.33392 0,-0.77816 -0.31105,-1.24644 -0.93357,-1.40207 -1.8676,-1.8676 -2.6469,-3.5783 -2.33565,-5.13464 0.31127,-1.71196 0.77954,-3.73542 1.40208,-6.06992 0.77816,-2.3345 0.93368,-4.04692 0.46678,-5.13635 -0.9338,-1.08943 -1.55759,-2.25669 -1.86886,-3.50175 -0.15563,-1.24507 -0.15563,-2.25679 0,-3.03496 0.15565,-0.9338 0.38977,-2.10105 0.70104,-3.50175 0.4669,-1.4007 0.70104,-2.41242 0.70104,-3.03496 0.31126,-3.42393 1.71094,-11.04951 4.20107,-22.87763 2.64576,-11.8281 3.65749,-21.16612 3.03496,-28.01397 -0.62254,-3.26829 0.0782,-6.22487 2.10139,-8.87064 1.55633,-1.55633 1.86736,-4.35739 0.93357,-8.40384 -0.9338,-4.2021 -1.24484,-7.00487 -0.93357,-8.40557 0,-0.15563 -0.23414,-0.46667 -0.70104,-0.93357 -0.4669,-0.4669 -0.77793,-0.62242 -0.93356,-0.46678 -1.4007,1.4007 -3.19004,1.24518 -5.36889,-0.46678 -2.02323,-1.71197 -3.346,-2.56818 -3.96853,-2.56818 -0.4669,0.77817 -0.77795,2.10093 -0.93358,3.96853 0,1.86759 -0.31104,3.19037 -0.93357,3.96853 -0.62254,0.77817 -1.8684,0.77817 -3.736,0 -2.17886,0 -3.50163,1.79105 -3.96853,5.3706 -0.4669,3.42393 -0.4669,6.84706 0,10.271 0.62253,7.47038 0.77805,19.22151 0.46678,35.25171 -0.31125,15.87458 -0.23264,27.46846 0.23426,34.78323 0,2.17885 -0.23414,4.43645 -0.70104,6.77095 -0.31127,2.17886 -0.85643,4.74579 -1.6346,7.70282 -0.77817,2.80139 -1.32334,4.82486 -1.63461,6.06991 -2.33449,4.2021 -4.59038,7.15868 -6.76925,8.87064 -2.17885,1.55633 -4.1237,2.1015 -5.83567,1.6346 -1.71196,-0.4669 -3.57991,-1.01206 -5.60313,-1.6346 -1.8676,-0.77816 -3.65694,-1.40024 -5.36889,-1.86714 -1.55633,-0.62253 -3.34737,-0.23288 -5.37061,1.16782 0,4.35772 0.93484,7.85948 2.80243,10.50524 2.02324,2.49013 4.90119,2.87807 8.63639,1.1661 l 5.37059,-0.46678 c 1.55634,0 3.81223,-0.38795 6.76925,-1.1661 3.11266,-0.9338 5.52578,-1.24656 7.23774,-0.93529 l 1.16612,1.40207 c 0,0.31127 0.23412,2.10059 0.70102,5.36889 0.4669,3.11265 1.08899,5.29164 1.86715,6.53671 0.62254,0.77816 3.11256,1.24472 7.47027,1.40036 l 10.97204,-0.46679 c 0,-0.62253 -0.23242,-1.8684 -0.69932,-3.73599 -0.31127,-1.71197 -0.4668,-3.19026 -0.4668,-4.43533 0,-1.24506 0.23244,-2.41231 0.69932,-3.50175 0.4669,-1.08942 1.63416,-1.63288 3.50175,-1.63288 1.8676,0 4.51315,0.69898 7.93707,2.09968 2.02323,0.77816 4.74739,-0.31048 8.17132,-3.2675 3.57955,-2.95703 5.91406,-4.66946 7.00349,-5.13636 18.67596,-8.40418 32.91711,-17.97461 42.72199,-28.71329 9.80489,-10.89432 14.94045,-22.25579 15.40735,-34.08391 0.4669,-11.8281 -3.26899,-24.12441 -11.20628,-36.88631 -0.62253,-1.08943 -1.55564,-2.95566 -2.80071,-5.60143 -1.08943,-2.8014 -2.25668,-5.1359 -3.50175,-7.0035 -1.08942,-1.86759 -2.56772,-3.19037 -4.43531,-3.96852 -0.77817,-0.9338 -2.10094,-2.41381 -3.96854,-4.43703 -1.71196,-2.17887 -3.26887,-3.96819 -4.66956,-5.36889 -1.4007,-1.4007 -2.87899,-2.56795 -4.43532,-3.50175 -1.55633,-1.08943 -2.72358,-1.94564 -3.50175,-2.56818 -0.77817,-0.62253 -1.40024,-1.63426 -1.86714,-3.03495 -0.4669,-1.4007 -0.54551,-3.19004 -0.23424,-5.36889 -0.9338,-0.15564 -2.17796,0.1554 -3.73429,0.93356 -1.4007,0.77817 -2.49105,1.0123 -3.26921,0.70104 -0.62254,-0.4669 -1.01219,-2.17932 -1.16782,-5.13635 -0.15563,-1.08943 -0.62219,-1.79013 -1.40036,-2.1014 -0.77816,-0.31126 -1.71128,-0.46678 -2.80071,-0.46678 -1.08943,0 -2.64634,-0.38795 -4.66957,-1.16611 -2.02322,-0.77817 -4.04668,-2.02403 -6.06992,-3.73599 -1.24506,-1.71197 -2.47,-2.56818 -3.67615,-2.56818 z m 128.22242,10.14105 c -0.9338,0.0875 -1.82846,0.36408 -2.68446,0.83098 -2.02322,1.08942 -3.26909,1.79012 -3.73599,2.10139 -0.4669,0.31126 -1.40002,1.01196 -2.8007,2.10139 -1.24507,1.08943 -2.1799,2.25668 -2.80243,3.50175 -0.4669,1.24505 -0.77794,2.64474 -0.93358,4.20107 -0.15563,2.95702 -0.93322,7.15947 -2.33392,12.60662 -1.24507,5.29153 -2.02437,9.10432 -2.33564,11.43882 -0.15563,2.17886 -1.24427,5.91474 -3.2675,11.20627 -2.02322,5.13589 -2.95635,9.25973 -2.80072,12.37238 0.15564,0.31127 0.077,0.62231 -0.23424,0.93358 -0.31127,0.31126 -0.46678,0.5454 -0.46678,0.70103 -0.77817,2.02322 -2.25646,5.05842 -4.43533,9.10489 -2.02322,4.04645 -3.03495,6.14682 -3.03495,6.30245 -2.02324,4.04646 -3.58014,6.38097 -4.66957,7.0035 -0.9338,0.4669 -3.65624,0.38999 -8.16961,-0.23254 -2.64575,-0.4669 -4.90335,-0.23448 -6.77095,0.69932 -1.71196,0.9338 -2.64508,2.49071 -2.80071,4.66957 0,1.71197 -0.31104,3.03473 -0.93358,3.96853 -0.62253,0.77817 -1.32322,1.24473 -2.10139,1.40036 -0.77816,0 -1.47885,0.31103 -2.10138,0.93356 -0.77817,0.4669 -1.24473,1.32312 -1.40036,2.56818 -0.15563,2.02323 1.71231,3.50153 5.60313,4.43532 3.89083,0.9338 7.15845,1.32346 9.80422,1.16782 2.95702,-0.31126 4.66945,-0.15575 5.13635,0.46679 0.62253,0.62253 0.46701,2.33496 -0.46679,5.13635 -1.08944,2.95703 -2.4122,7.15948 -3.96854,12.60663 -1.4007,5.44715 -2.88069,10.4272 -4.43703,14.94055 -1.40068,4.35773 -3.03449,8.40295 -4.90209,12.13814 -0.77817,1.24506 -1.01059,2.56955 -0.69932,3.97025 0.4669,1.24506 1.40001,2.02266 2.8007,2.33393 5.29153,0.4669 9.25984,0.69932 11.90561,0.69932 7.93728,0 9.96074,-1.86623 6.06991,-5.60143 -0.77816,-0.62253 -1.32333,-1.47874 -1.6346,-2.56817 -0.31126,-1.08944 -0.15575,-1.86874 0.46678,-2.33564 1.71197,-0.9338 2.56818,-1.78831 2.56818,-2.56647 0,-0.77817 -0.62207,-1.86851 -1.86714,-3.26921 -1.4007,-1.55632 -1.4007,-4.04635 0,-7.47027 1.55633,-4.04647 3.57979,-11.36101 6.06993,-21.94406 0.46689,-1.8676 0.93345,-3.4245 1.40035,-4.66957 0.62254,-1.24506 1.40012,-2.41232 2.33392,-3.50175 0.9338,-1.24505 2.10106,-2.10127 3.50175,-2.56816 1.55634,-0.4669 3.42428,-0.54381 5.60314,-0.23254 9.64925,-2.64577 21.01072,-3.89164 34.0839,-3.73601 4.66899,0 7.15901,2.10209 7.47027,6.30418 0.31127,4.20209 1.47852,8.24731 3.50175,12.13814 0.9338,2.02322 1.86862,5.68221 2.80242,10.97373 0.9338,5.29153 2.25658,9.18122 3.96855,11.67135 -1.08945,3.7352 -0.0777,8.01626 3.03495,12.84088 3.11267,4.82463 6.5358,6.69086 10.27099,5.60142 1.24507,-0.46689 1.86715,-1.16587 1.86715,-2.09967 0.15563,-0.9338 1.1e-4,-1.94554 -0.46679,-3.03496 -0.46689,-1.24507 -0.5438,-2.1799 -0.23253,-2.80243 0.15562,-0.15563 0.93322,-0.31115 2.33392,-0.46678 2.49013,-0.15564 3.96843,-0.62219 4.43531,-1.40036 0.4669,-0.77817 -0.0782,-2.10093 -1.6346,-3.96853 -0.62253,-0.77817 -1.47702,-2.02403 -2.56647,-3.736 -1.08942,-1.71196 -2.10115,-3.34577 -3.03495,-4.9021 -0.9338,-1.55633 -1.86862,-2.72359 -2.80242,-3.50175 -0.31127,-0.31127 -0.77783,-1.01195 -1.40036,-2.10139 l -1.16782,-2.33393 c -0.31126,-0.31126 -0.93335,-1.86817 -1.86715,-4.66957 -0.9338,-2.95702 -2.02243,-6.14773 -3.26749,-9.57166 -1.08944,-3.57956 -1.94565,-6.14649 -2.56818,-7.70282 1.55633,-0.15563 4.04635,-0.0787 7.47028,0.23254 3.42392,0.31126 6.38051,0.15575 8.87063,-0.46679 2.64577,-0.62253 5.29131,-2.17773 7.93708,-4.66785 0.15562,-0.77816 0.0787,-1.32334 -0.23254,-1.63461 -0.31127,-0.4669 -0.85645,-0.77793 -1.63461,-0.93356 -0.62254,-0.15564 -1.32323,-0.23426 -2.1014,-0.23426 -0.62252,-0.15563 -1.40012,-0.23254 -2.33392,-0.23254 -0.9338,0 -1.55587,-0.0785 -1.86715,-0.23424 l -3.96852,-0.46678 c -1.71196,-0.15565 -3.03645,-0.23254 -3.97025,-0.23254 -7.15911,-1.08943 -9.02534,-3.65807 -5.60142,-7.70454 3.42393,0.15565 5.75843,-0.0784 7.0035,-0.70102 -0.4669,-0.4669 -1.01208,-0.77794 -1.63461,-0.93358 -0.4669,-0.15563 -1.08898,-0.23254 -1.86714,-0.23254 h -1.6346 l -5.60315,-3.50175 c -0.31126,-1.55632 -0.62231,-3.89082 -0.93357,-7.00349 -0.31127,-3.26829 -0.70092,-6.06936 -1.16782,-8.40384 -0.4669,-2.49013 -1.08897,-4.74773 -1.86714,-6.77096 -0.77817,-2.49014 -2.25646,-7.08052 -4.43531,-13.77274 -2.02324,-6.69222 -3.65705,-11.75088 -4.90211,-15.17481 -1.08943,-3.42393 -2.88047,-7.62637 -5.37061,-12.60663 -2.33448,-5.13589 -4.98003,-9.49385 -7.93705,-13.07342 -3.50175,-3.15156 -6.6523,-4.59535 -9.45369,-4.33272 z m -632.29786,0.59844 c -2.17886,0 -4.27922,0.0769 -6.30245,0.23254 -1.8676,0.15564 -3.89107,0.54529 -6.06993,1.16782 -2.02323,0.4669 -3.96979,1.08897 -5.83739,1.86714 -0.15563,0 -0.69909,-0.15553 -1.63289,-0.46678 -0.77817,-0.31127 -1.47885,-0.31127 -2.10139,0 -0.46689,0.15563 -0.77794,0.7777 -0.93357,1.86714 -3.2683,0.77816 -7.39383,4.27992 -12.37409,10.50524 -4.98026,6.22532 -6.76959,13.22883 -5.36889,21.01048 0.62253,3.26829 2.10082,6.30348 4.43531,9.10488 2.49013,2.8014 5.60394,5.68107 9.33914,8.6381 3.89083,2.8014 6.61327,5.05728 8.1696,6.76925 3.11267,3.42393 7.78166,8.32706 14.00699,14.70801 6.38095,6.38096 10.97305,11.12858 13.77444,14.24125 0.9338,0.9338 2.72314,2.6445 5.36889,5.13463 2.64577,2.49013 4.59062,4.5136 5.83568,6.06993 1.71197,2.3345 3.81404,5.68073 6.30417,10.03846 2.49013,4.35771 4.20085,7.2374 5.13465,8.63809 2.17885,3.26829 0.9347,7.62626 -3.73429,13.07341 -4.51336,5.29153 -8.7158,8.1695 -12.60663,8.6364 -1.8676,-0.62254 -4.35762,-0.54393 -7.47029,0.23424 -3.11265,0.77817 -5.52406,0.69956 -7.23602,-0.23424 -0.62254,0 -2.56909,-0.23242 -5.83739,-0.69932 -3.11266,-0.4669 -5.60269,-0.54552 -7.47027,-0.23426 -1.8676,0.31127 -3.65694,1.09057 -5.36889,2.33564 -1.08944,0 -2.10117,-0.23414 -3.03497,-0.70104 -0.9338,-0.62252 -1.79001,-1.1677 -2.56818,-1.6346 -0.62253,-0.62253 -1.40013,-1.32322 -2.33392,-2.10139 -0.77816,-0.77817 -1.55748,-1.32163 -2.33563,-1.6329 -12.29502,-7.31475 -20.93234,-14.31825 -25.91259,-21.01048 -0.31127,-1.86758 -0.62231,-4.74727 -0.93358,-8.63809 -0.15563,-3.89083 -0.38977,-6.8474 -0.70103,-8.87064 -0.9338,-4.98026 0.93415,-10.7396 5.60314,-17.2762 1.71197,-2.49012 6.753,-4.66169 6.4564,-7.15846 -2.00872,-16.90957 -4.06177,-12.32802 -13.22565,-17.35376 -2.02323,0.93379 -3.34599,3.03587 -3.96853,6.30417 0,0.4669 -0.70069,0.93346 -2.10139,1.40036 -3.7352,1.4007 -5.60313,4.66832 -5.60313,9.8042 0.15563,6.69222 -1.16715,13.92987 -3.96855,21.71152 -0.15562,0.4669 -0.38976,1.08897 -0.70102,1.86714 -0.31127,0.62253 -0.54369,1.16771 -0.69932,1.63461 -0.31127,0.4669 -0.4668,1.01207 -0.4668,1.6346 -0.15563,0.62253 -0.0787,1.24461 0.23254,1.86714 0.31127,0.62253 0.77954,1.16771 1.40208,1.63461 1.71195,1.08942 1.86748,2.56772 0.46678,4.43531 -1.24507,1.71197 -1.4792,3.03474 -0.70104,3.96854 l 0.23426,0.69932 c 0.31126,0.4669 0.54368,0.70103 0.69932,0.70103 0.77816,0 1.32333,0.15552 1.6346,0.46679 0.4669,0.15563 0.77794,0.46667 0.93357,0.93357 0.15564,0.31127 0.23425,0.77782 0.23425,1.40036 0.15563,0.4669 0.15563,1.09069 0,1.86885 0,1.08943 1.16725,2.87876 3.50175,5.36889 2.49013,2.33449 4.20084,3.42313 5.13464,3.2675 h 0.23424 c 10.73869,9.49361 20.07669,16.3416 28.01397,20.54369 8.24856,4.98026 16.73036,8.24959 25.44581,9.80592 8.71545,1.40069 17.74242,0.70001 27.0804,-2.10139 1.8676,0.15563 3.19037,0.15563 3.96854,0 0.9338,-0.15563 2.17795,-0.54528 3.73429,-1.16782 1.55632,-0.62253 2.72357,-1.01048 3.50174,-1.16611 0.62253,-0.15563 2.02392,-1.4784 4.20278,-3.96853 2.17886,-2.49012 4.51336,-5.44842 7.00349,-8.87235 2.64577,-3.42393 5.2144,-6.77016 7.70453,-10.03846 2.49013,-3.42392 4.51189,-6.30188 6.06821,-8.63638 0.9338,-1.55633 1.16793,-4.12496 0.70103,-7.70453 -0.9338,-6.22532 -4.8252,-11.51641 -11.67305,-15.87413 -4.2021,-2.95703 -9.95974,-7.62604 -17.27449,-14.00699 -7.15912,-6.38095 -11.59399,-10.27236 -13.30595,-11.67305 -0.77817,-0.62254 -1.713,-1.55565 -2.80243,-2.80072 -1.08944,-1.24506 -2.17807,-2.33541 -3.2675,-3.26921 -0.9338,-0.9338 -2.02415,-1.63448 -3.26921,-2.10138 -6.53659,-2.3345 -14.08527,-7.08041 -22.64508,-14.23953 -1.24507,-0.77817 -2.17818,-1.47886 -2.80072,-2.10139 -0.62253,-0.77817 -1.2446,-1.63438 -1.86714,-2.56818 -0.46689,-1.08943 -0.70103,-2.17806 -0.70103,-3.2675 0,-1.24506 0.31104,-2.49092 0.93356,-3.73599 0.9338,-0.62253 1.79002,-1.01048 2.56819,-1.16611 0.77815,-0.15564 1.55747,-0.0788 2.33564,0.23254 0.77816,0.31126 1.40024,0.6223 1.86713,0.93357 0.62254,0.31127 1.32323,0.85643 2.1014,1.6346 1.55633,0.62253 2.41083,0.3884 2.56646,-0.70104 0.15563,-0.93378 -0.38783,-2.25656 -1.6329,-3.96853 -6.06968,-9.02671 -4.28036,-15.79608 5.36889,-20.30944 5.1359,-2.49013 10.50559,-3.42495 16.10838,-2.80242 2.80139,0.15563 9.33835,0.15563 19.61013,0 0.77816,-0.15563 1.32163,-0.6991 1.63289,-1.6329 0.31127,-0.31126 0.77953,-0.6223 1.40207,-0.93357 0.62253,-0.4669 1.16599,-0.85655 1.63289,-1.16782 0.62253,-0.4669 1.08909,-0.93346 1.40036,-1.40036 0.31126,-0.15563 0.70092,-0.15563 1.16782,0 0.4669,0 0.93345,0.0769 1.40035,0.23254 0.4669,0 0.85656,-0.0769 1.16782,-0.23254 0.31127,-0.31126 0.46679,-0.77782 0.46679,-1.40035 0.15564,-2.17887 -1.32266,-2.95817 -4.43532,-2.33564 -12.91754,-2.17886 -22.48969,-3.2675 -28.71501,-3.2675 -2.02323,-0.15563 -4.1236,-0.15563 -6.30246,0 z m 260.06284,1.6329 c -1.94541,0 -3.73645,0.0785 -5.3706,0.23424 -3.11265,0.15564 -7.15787,0.54529 -12.13814,1.16782 -4.98025,0.4669 -8.482,0.77794 -10.50524,0.93358 -3.42392,0.31126 -7.08119,2.2561 -10.97202,5.83567 -0.31126,-0.15564 -0.5454,-0.23254 -0.70103,-0.23254 -1.40069,1.4007 -3.19003,1.32209 -5.36889,-0.23424 -2.02324,-1.71197 -3.346,-2.56818 -3.96854,-2.56818 -0.4669,0.77817 -0.77964,2.02403 -0.93528,3.73599 0,1.71197 -0.31104,2.95612 -0.93356,3.73428 -0.62253,0.77817 -1.86669,0.77817 -3.73429,0 -2.17886,0 -3.50163,1.63381 -3.96853,4.90211 -0.4669,3.2683 -0.54551,6.53762 -0.23424,9.80592 0.46688,4.66898 0.70102,9.49351 0.70102,14.47377 0.15563,4.98025 0.15563,11.05065 0,18.20977 -0.15563,7.15911 -0.31115,11.98364 -0.46678,14.47377 -3.42393,1.4007 -6.53774,2.48933 -9.33914,3.2675 2.8014,5.60279 5.99211,9.5711 9.57168,11.90559 0.77816,6.5366 -0.62151,14.63045 -4.20107,24.27969 -1.08944,0 -2.10117,0.31105 -3.03496,0.93358 -0.4669,1.71196 -0.4669,3.19026 0,4.43531 -2.95703,5.91406 -3.03565,9.10478 -0.23425,9.57168 -2.8014,0.31126 -5.2128,1.01196 -7.23603,2.10138 -2.02324,1.08943 -3.73566,3.1898 -5.13635,6.30247 4.20208,14.78514 12.7625,20.23174 25.68004,16.34092 1.24507,-0.31127 5.60132,-0.77784 13.0717,-1.40036 7.47039,-0.77817 12.9187,-2.5675 16.34263,-5.36889 2.64577,-2.17886 6.45855,-3.58025 11.43882,-4.20279 5.13588,-0.77816 8.79315,-1.71128 10.97202,-2.80071 3.11266,-1.8676 6.61442,-3.34588 10.50524,-4.43531 3.89083,-1.24507 7.39258,-2.10128 10.50524,-2.56818 3.2683,-0.4669 6.92557,-1.08898 10.97203,-1.86715 4.20209,-0.93379 7.85936,-1.94552 10.97202,-3.03496 1.8676,-0.4669 3.03485,-1.63415 3.50175,-3.50175 0.62254,-2.02322 0.31149,-3.81426 -0.93357,-5.37059 -1.08943,-1.71197 -2.64634,-2.41095 -4.66957,-2.09968 -12.7619,1.24507 -21.86578,2.72335 -27.31293,4.43532 -1.4007,-1.71197 -3.03451,-2.7237 -4.90211,-3.03496 -1.8676,-0.31127 -3.65864,-0.23436 -5.37061,0.23254 -1.86758,0.77815 -5.60176,1.63437 -11.20456,2.56817 -5.60278,0.77817 -9.80523,2.49059 -12.60663,5.13635 -0.62252,0 -4.2798,0.7007 -10.97202,2.10139 -6.53659,1.40069 -10.11695,2.10139 -10.7395,2.10139 -0.15562,-0.15563 -0.15562,-0.85633 0,-2.10139 0.15565,-1.24506 0.31287,-2.56784 0.4685,-3.96854 0.31127,-1.55632 0.46679,-3.03461 0.46679,-4.43531 0,-1.55633 -0.31274,-2.72359 -0.93529,-3.50175 -0.46688,-0.9338 -1.32139,-1.32345 -2.56646,-1.16782 -0.4669,-1.08943 -0.62241,-2.02255 -0.46678,-2.80071 0.31127,-0.77817 0.46678,-1.47885 0.46678,-2.10139 0,-0.62253 -0.31274,-1.08909 -0.93528,-1.40035 -2.33449,-1.55634 -2.80105,-4.43602 -1.40035,-8.6381 1.4007,-4.35773 1.16826,-7.39292 -0.69932,-9.10489 6.84785,-0.9338 15.0186,-3.03416 24.51223,-6.30246 9.64923,-3.42392 18.90863,-6.38221 27.77972,-8.87235 8.87109,-2.49013 17.04184,-3.57876 24.51222,-3.26749 0.9338,0.15563 2.17967,0.62219 3.73601,1.40036 1.71195,0.62253 2.95611,1.01218 3.73428,1.16781 0.93379,0.15564 2.25656,-0.23402 3.96853,-1.16781 v -3.73429 c -1.55633,-1.4007 -2.80049,-3.03622 -3.73428,-4.90382 -0.77817,-1.86759 -1.55748,-3.26727 -2.33565,-4.20107 -0.62253,-0.9338 -1.86668,-1.55758 -3.73428,-1.86885 l -0.93357,-0.23254 c -6.38095,-1.8676 -11.04996,-2.02311 -14.00699,-0.46678 -1.55632,1.24506 -4.43601,2.64474 -8.63809,4.20107 -4.04646,1.55633 -7.15857,1.71356 -9.33742,0.4685 -0.4669,-0.31127 -1.78968,-1.16748 -3.96854,-2.56818 -2.02323,-1.4007 -3.50323,-2.25691 -4.43703,-2.56817 -0.77816,-0.4669 -2.10093,-1.01208 -3.96853,-1.63461 -1.8676,-0.62254 -3.4228,-0.69944 -4.66786,-0.23254 -1.08942,0.31126 -2.4122,1.08886 -3.96852,2.33393 -1.4007,1.24506 -2.80209,2.95748 -4.20279,5.13635 -0.15563,0.31127 -0.77771,0.54369 -1.86714,0.69932 -4.2021,0.62253 -9.26076,2.10083 -15.17481,4.43532 l 1.6346,-6.5367 c 0.77817,-3.11267 1.32335,-5.52408 1.63461,-7.23604 0.4669,-1.71197 0.85484,-3.81404 1.16611,-6.30417 0.4669,-2.49013 0.70103,-4.82464 0.70103,-7.00349 -0.15563,-2.02323 -0.46667,-4.35774 -0.93357,-7.0035 l -0.93357,-5.60143 c -0.15563,-1.08942 -0.23425,-2.33529 -0.23425,-3.73599 0.15563,-1.40069 0.46668,-2.41243 0.93358,-3.03496 0.62253,-0.62253 1.47874,-1.1677 2.56817,-1.6346 24.27875,-10.42742 47.70239,-11.28192 70.26918,-2.56647 -1.08943,-4.20209 -2.95736,-7.62694 -5.60313,-10.2727 -2.64576,-2.64577 -5.44683,-4.51371 -8.40386,-5.60315 -2.95702,-1.24505 -6.69291,-2.02265 -11.20626,-2.33392 -2.25668,-0.15563 -4.35705,-0.23424 -6.30247,-0.23424 z m 481.41666,1.08061 c -1.6633,-0.0584 -2.8458,0.67117 -3.5462,2.18859 -0.9338,1.71197 -2.101,3.11335 -3.5017,4.20279 -1.4007,1.08943 -2.8021,1.94392 -4.2028,2.56646 -1.2451,0.4669 -2.7234,1.47863 -4.4353,3.03496 -1.5564,1.40069 -2.8791,3.19173 -3.9686,5.3706 -14.00694,25.83508 -21.24286,50.42427 -21.70976,73.76923 -0.31127,3.26828 -0.4685,6.84865 -0.4685,10.73948 0,3.89083 0.0787,7.15845 0.23424,9.80421 0.15564,2.49013 0.46668,6.1474 0.93358,10.97203 0.4669,4.66898 0.77794,7.93832 0.93356,9.80592 0.31128,4.04645 1.09058,6.53647 2.33565,7.47027 1.24505,0.31127 4.20164,2.02198 8.87063,5.13464 4.8246,2.95704 8.3264,5.29153 10.5052,7.00349 3.8909,3.2683 10.9713,4.43555 21.2431,3.50175 10.4274,-0.93379 18.5212,-3.50072 24.2797,-7.70282 l -2.8025,-1.6346 c 2.9571,-4.04646 6.3819,-6.22544 10.2727,-6.5367 2.64584,-0.15564 5.29134,-1.86807 7.93714,-5.13636 2.64566,-3.42393 4.35806,-5.36878 5.13626,-5.83568 15.252,-11.51683 19.921,-33.5391 14.0069,-66.06639 0.4669,-0.15564 0.8549,-0.077 1.1661,0.23424 0.3113,0.31127 0.5454,0.69921 0.7011,1.16611 0.1556,0.31127 0.3897,0.46678 0.701,0.46678 2.3345,-3.73519 2.878,-8.09316 1.6329,-13.07341 -1.0894,-5.1359 -3.3453,-8.24799 -6.7692,-9.33742 0.1556,0.15563 0.3111,0.85633 0.4667,2.10139 0.1557,1.08942 0.2343,1.86702 0.2343,2.33392 0.1556,0.4669 0.1556,1.09069 0,1.86886 0,0.77816 -0.1572,1.55576 -0.4685,2.33393 -1.2451,0.31125 -2.6447,-0.23391 -4.2011,-1.63461 -1.5563,-1.55633 -3.1901,-3.50118 -4.9021,-5.83567 -1.5563,-2.3345 -3.1918,-4.66901 -4.9038,-7.00349 -1.5563,-2.49014 -3.34556,-4.59222 -5.36876,-6.30418 -1.8676,-1.71196 -3.6569,-2.56646 -5.36894,-2.56646 -3.1126,-0.4669 -4.2799,-2.64589 -3.5017,-6.53671 0.6225,-4.51336 -1.0899,-6.77096 -5.1364,-6.77096 -1.8676,0 -4.6686,-0.54517 -8.4038,-1.6346 -3.7352,-1.08944 -6.6918,-1.55599 -8.8707,-1.40036 -1.5563,0.15563 -2.4125,-0.77748 -2.5681,-2.80071 5.2915,-1.24507 10.7381,-0.69989 16.3409,1.6346 1.8676,0.9338 3.8141,1.32174 5.8374,1.16611 1.4007,-0.15563 2.2552,-1.08875 2.5664,-2.80071 0,-1.71197 -0.8545,-2.49127 -2.5664,-2.33564 -2.1789,0 -4.5134,-0.23242 -7.0035,-0.69932 -2.4902,-0.4669 -4.6691,-0.93346 -6.5367,-1.40036 -1.712,-0.4669 -4.0465,-1.09069 -7.0035,-1.86885 -2.8014,-0.77817 -4.9035,-1.32163 -6.3042,-1.6329 -0.6614,-0.19455 -1.2682,-0.30199 -1.8227,-0.32145 z m -341.11425,0.0137 c -0.70035,0.12645 -1.47794,0.38547 -2.33392,0.77455 -3.57956,1.4007 -5.05786,3.42416 -4.43532,6.06993 0,6.06968 1.24415,18.05324 3.73429,35.95103 2.49013,17.8978 2.95668,31.98172 1.40035,42.2535 1.08943,1.55633 2.02427,3.50289 2.80242,5.83739 0.77817,2.3345 1.40025,5.36798 1.86715,9.10318 0.4669,3.73518 0.85655,7.16003 1.16782,10.2727 0.31127,2.95703 0.62231,7.08086 0.93356,12.37238 0.4669,5.29153 0.77795,9.49397 0.93358,12.60663 -1.4007,-1.4007 -4.28037,-4.51279 -8.6381,-9.33742 -4.20209,-4.98025 -8.32592,-9.8834 -12.37238,-14.70802 -4.04645,-4.98026 -8.01477,-9.49374 -11.9056,-13.5402 -3.89083,-4.20209 -6.45946,-6.5366 -7.70452,-7.00349 0.15563,-3.2683 -1.16714,-9.96077 -3.96854,-20.07692 -2.80139,-10.27178 -6.22453,-22.09981 -10.27099,-35.48425 -3.89082,-13.54007 -6.61498,-24.27776 -8.17131,-32.21504 -0.62253,0 -1.47874,-0.0786 -2.56818,-0.23426 -1.4007,-1.8676 -3.34555,-2.72381 -5.83568,-2.56817 -2.49012,0 -3.73599,1.32278 -3.73599,3.96853 -0.4669,0.62253 -1.32311,1.16771 -2.56818,1.63461 -1.08943,0.31127 -2.10116,0.6223 -3.03496,0.93357 -0.77816,0.31126 -1.47714,1.08886 -2.09967,2.33393 -0.62254,1.24506 -0.62254,3.19162 0,5.83738 0.15563,2.49012 -0.46816,10.73779 -1.86886,24.74476 -4.51336,46.37866 -5.68061,77.73891 -3.50175,94.08039 2.3345,18.98723 8.63902,25.29005 18.9108,18.90909 1.55634,-2.3345 1.39911,-5.29108 -0.46849,-8.87063 -1.8676,-3.57957 -2.80072,-5.91407 -2.80072,-7.0035 0,-3.7352 -1.16725,-11.28388 -3.50174,-22.64508 -2.17886,-11.51685 -3.1906,-19.99866 -3.03496,-25.44581 -0.62254,-3.57956 -0.3115,-7.15821 0.93357,-10.73778 1.4007,-3.73518 2.02449,-6.849 1.86885,-9.33912 0,-0.4669 0.15552,-1.78968 0.46679,-3.96854 0.4669,-2.17886 1.01036,-4.43475 1.63289,-6.76924 0.62254,-2.3345 1.24632,-3.81279 1.86886,-4.43533 2.02323,2.95703 4.90119,8.71467 8.63638,17.27449 3.89083,8.40418 6.30395,14.39596 7.23775,17.97552 2.49013,5.75842 10.03881,17.04299 22.64508,33.85136 12.60628,16.80837 21.2436,26.61294 25.91258,29.41434 3.42393,2.17886 6.45912,3.19059 9.10489,3.03495 10.11614,-1.71196 12.52755,-26.69079 7.23604,-74.93703 -2.8014,-24.74566 -4.20109,-37.66403 -4.20109,-38.75347 -0.62252,-6.22533 0.0765,-15.95298 2.09969,-29.1818 0.15564,-1.86758 -0.15541,-3.26727 -0.93357,-4.20107 -0.77817,-0.9338 -1.63438,-1.47896 -2.56818,-1.6346 l -2.80071,-0.93357 c -0.9338,-0.31127 -1.47897,-0.70092 -1.6346,-1.16782 l -0.23254,-1.6346 c -0.70035,-1.98432 -2.10174,-2.78681 -4.20279,-2.40745 z m 227.84609,21.084 c 2.3345,2.64576 4.43657,5.60234 6.30417,8.87064 1.8676,3.26829 3.34589,6.14797 4.43533,8.6381 1.08942,2.3345 2.17806,5.83624 3.26749,10.50524 1.08943,4.51335 1.79013,7.62545 2.10138,9.33742 l 2.1014,10.50524 c 0.31126,2.64576 1.55714,4.59232 3.73599,5.83739 1.24507,0.4669 2.02267,0.93345 2.33393,1.40035 0.4669,0.4669 0.54381,0.85655 0.23254,1.16782 -0.15563,0.31127 -0.46667,0.6223 -0.93357,0.93358 -0.4669,0.31125 -1.08898,0.77781 -1.86714,1.40034 -0.77817,0.4669 -1.47886,0.93346 -2.1014,1.40036 0.4669,0.9338 1.32311,1.55588 2.56818,1.86715 1.24507,0.15563 2.2568,0.38976 3.03497,0.70104 0.77815,0.31125 1.01229,1.08885 0.70102,2.33392 -0.62253,3.11266 -3.4253,3.96887 -8.40556,2.56817 -2.49012,-0.77816 -6.84638,-0.93368 -13.0717,-0.46678 -2.02323,0 -4.9029,-0.54518 -8.6381,-1.63461 -3.7352,-1.08942 -6.53625,-1.71151 -8.40385,-1.86714 0.31127,-0.77817 1.08887,-1.24472 2.33393,-1.40036 1.40069,-0.15563 2.17829,-0.54528 2.33393,-1.16782 0.31126,-1.08943 0.0788,-1.55599 -0.69932,-1.40035 -4.669,0.62253 -7.54867,0.31149 -8.6381,-0.93358 -1.08944,-1.24505 -0.93391,-4.04611 0.46678,-8.40384 3.89083,-13.38445 6.06982,-20.62209 6.53671,-21.71152 0.46689,-1.55633 1.24449,-3.89084 2.33393,-7.00349 1.24506,-3.11266 2.2568,-5.83511 3.03495,-8.1696 0.77817,-2.49013 1.40025,-4.90325 1.86715,-7.23775 v -0.93357 c 0.15564,-0.62252 0.23425,-1.01219 0.23425,-1.16782 0.15563,-0.31127 0.31116,-0.6992 0.46678,-1.1661 0.15563,-0.4669 0.31116,-0.77965 0.46679,-0.93528 0.15564,-0.31127 0.38976,-0.62231 0.70104,-0.93358 0.31125,-0.31126 0.6992,-0.62231 1.1661,-0.93357 z m 121.62756,4.66957 c 3.5796,0.62253 6.4592,1.55564 8.6381,2.80071 2.1789,1.24507 4.5903,3.42404 7.236,6.53671 3.1127,3.57956 5.76,6.30372 7.9388,8.17132 2.3345,1.71195 5.21254,2.8792 8.63644,3.50174 4.20196,0.77816 5.75886,2.95715 4.66946,6.5367 -0.6226,3.11267 -0.3115,6.38029 0.9335,9.80422 1.2451,3.26828 2.3355,6.38039 3.2693,9.33742 1.0894,2.95702 0.9322,7.62603 -0.4685,14.00698 -1.4007,8.71546 -2.8004,14.70894 -4.2011,17.97724 -1.4006,3.26828 -4.59126,7.08108 -9.5716,11.4388 -0.6225,0 -1.2446,0.46656 -1.8671,1.40036 -0.6226,0.9338 -1.2463,2.10105 -1.8689,3.50175 -0.4669,1.24506 -1.0103,2.56783 -1.6329,3.96853 -0.6225,1.4007 -1.3232,2.56795 -2.1014,3.50175 -0.6225,0.9338 -1.3232,1.32345 -2.1014,1.16782 -0.4668,-0.15563 -1.0889,0.0768 -1.8671,0.69932 -0.6225,0.4669 -1.2446,1.08897 -1.8671,1.86714 -0.4669,0.77817 -1.0121,1.55748 -1.6346,2.33565 -0.4669,0.77815 -0.9335,1.40024 -1.4004,1.86714 -0.4669,0.46689 -0.7779,0.54551 -0.9336,0.23424 -1.8676,-2.17887 -3.58,-2.10196 -5.1363,0.23254 0.1556,0.4669 -0.079,0.93346 -0.7011,1.40035 -0.6225,0.4669 -1.7111,1.01207 -3.2675,1.63462 -1.5563,0.62252 -2.8791,1.08909 -3.9685,1.40034 -1.0894,0.31127 -2.6463,0.85645 -4.6696,1.63461 -0.4669,0.15564 -0.8565,0.23425 -1.1678,0.23425 -4.2021,1.4007 -7.7038,-6.9e-4 -10.5052,-4.20278 -6.381,-9.18235 -9.8827,-15.7193 -10.5053,-19.61012 -0.3112,-1.71197 -0.7778,-3.81234 -1.4003,-6.30247 -0.4669,-2.49013 -0.8566,-4.43668 -1.1678,-5.83738 -0.3113,-1.55633 -0.6223,-3.50118 -0.9336,-5.83567 -0.1556,-2.49014 0.079,-4.5136 0.701,-6.06993 3.1127,-15.25203 6.6144,-28.55836 10.5053,-39.91957 3.2683,-9.80488 6.77,-17.97564 10.5052,-24.51223 1.712,-3.11266 3.8123,-3.4237 6.3025,-0.93357 1.0894,1.24506 1.8687,0.6999 2.3356,-1.6346 0.4669,-1.8676 1.5555,-2.6452 3.2675,-2.33393 z"
         sodipodi:nodetypes="scccsccscccccccccccccscscccscccsccsccccscccccccccccccccsccsccccccccccccscccccccccscccscsscsccccccccccccsccsccscccccccccccccsscccccscccscccscccsscccccscsscscccccccccccccccsccccccccccscccscccccsccccccscscscccccccccccccsscccscccccccccsccccccccccccccsssccccscccccscssccccssscsscscccccccscccccccccccsccccccccscscsccccccccscscscccccscssccccccscccccsccccccscccccccccscccccccscccsccscssccsccscccccccccsccccccccsccccscccccccccccscscccccccscccccscssccccccccccccccccccsccccccccscsccscccccccsccccccccccccccscccccscscccsccccsccccccccccccccscccccccccccccccscssscsccccscccccccccccccsccccccccccccccssccccccscccssccscsscccccccccccccccsccccsscccccscccscccccscsccscscccccccscccscccsccccscccccccscsccscccccccscscscccccsccsssccccccccccccc" /></g><g
       inkscape:groupmode="layer"
       id="g4"
       inkscape:label="Shendao-text"
       transform="translate(-2e-6)"
       style="display:none"><text
         xml:space="preserve"
         style="font-style:normal;font-weight:normal;font-size:120px;line-height:1.25;font-family:sans-serif;letter-spacing:3.75px;word-spacing:0px;fill:#000000;fill-opacity:1;stroke:none;stroke-width:0.75"
         x="216.82271"
         y="785.31464"
         id="text3"><tspan
           sodipodi:role="line"
           id="tspan3"
           style="font-style:normal;font-variant:normal;font-weight:normal;font-stretch:normal;font-size:120px;font-family:Shinrinyoku;-inkscape-font-specification:Shinrinyoku;letter-spacing:3.75px;stroke-width:0.75"
           x="216.82271"
           y="785.31464">AKUPUNKTURA</tspan></text><text
         xml:space="preserve"
         style="font-style:normal;font-weight:normal;font-size:200px;line-height:1.25;font-family:sans-serif;letter-spacing:0px;word-spacing:0px;fill:#000000;fill-opacity:1;stroke:none;stroke-width:0.75"
         x="224.15459"
         y="575.16907"
         id="text4"><tspan
           sodipodi:role="line"
           id="tspan4"
           style="font-style:normal;font-variant:normal;font-weight:normal;font-stretch:normal;font-size:200px;font-family:Shinrinyoku;-inkscape-font-specification:Shinrinyoku;stroke-width:0.75"
           x="224.15459"
           y="575.16907">shendao</tspan></text></g></g><style
     type="text/css"
     id="style1">
	.st0{fill:#231F20;}
</style></svg>
