<svg xmlns="http://www.w3.org/2000/svg" width="88px" height="88px" viewBox="0 0 88 88"><path fill="#3C4043" d="M69.6666667,62.1133333 L69.6666667,31.1666667 C69.6666667,20.9366667 60.0966667,18.7 47.63,18.37 L50.4166667,12.8333333 L62.3333333,12.8333333 L62.3333333,7.33333333 L25.6666667,7.33333333 L25.6666667,12.8333333 L43.0833333,12.8333333 L40.2966667,18.4066667 C28.82,18.7366667 18.3333333,21.01 18.3333333,31.1666667 L18.3333333,62.1133333 C18.3333333,67.43 22.6966667,71.8666667 27.83,73.0033333 L22,78.8333333 L22,80.6666667 L30.1766667,80.6666667 L37.51,73.3333333 L51.3333333,73.3333333 L58.6666667,80.6666667 L66,80.6666667 L66,78.8333333 L60.5,73.3333333 L60.2066667,73.3333333 C66.4033333,73.3333333 69.6666667,68.31 69.6666667,62.1133333 L69.6666667,62.1133333 Z M44,67.8333333 C40.9566667,67.8333333 38.5,65.3766667 38.5,62.3333333 C38.5,59.29 40.9566667,56.8333333 44,56.8333333 C47.0433333,56.8333333 49.5,59.29 49.5,62.3333333 C49.5,65.3766667 47.0433333,67.8333333 44,67.8333333 L44,67.8333333 Z M62.3333333,51.3333333 L25.6666667,51.3333333 L25.6666667,33 L62.3333333,33 L62.3333333,51.3333333 L62.3333333,51.3333333 Z"/></svg>